<?xml version="1.0" standalone="no"?>
<!DOCTYPE svg PUBLIC "-//W3C//DTD SVG 20010904//EN"
 "http://www.w3.org/TR/2001/REC-SVG-20010904/DTD/svg10.dtd">
<svg version="1.0" xmlns="http://www.w3.org/2000/svg"
 width="280.000000pt" height="280.000000pt" viewBox="0 0 280.000000 280.000000"
 preserveAspectRatio="xMidYMid meet">

<g transform="translate(0.000000,280.000000) scale(0.100000,-0.100000)"
fill="#000000" stroke="none">
<path d="M50 2540 l0 -210 210 0 210 0 0 210 0 210 -210 0 -210 0 0 -210z
m360 0 l0 -150 -150 0 -150 0 0 150 0 150 150 0 150 0 0 -150z"/>
<path d="M170 2540 l0 -90 90 0 90 0 0 90 0 90 -90 0 -90 0 0 -90z"/>
<path d="M530 2720 c0 -27 3 -30 30 -30 27 0 30 -3 30 -30 0 -27 -3 -30 -30
-30 l-30 0 0 -60 0 -60 90 0 90 0 0 -30 0 -30 -90 0 -90 0 0 -90 0 -90 -60 0
-60 0 0 -30 0 -30 60 0 60 0 0 -30 0 -30 -60 0 -60 0 0 -30 c0 -27 3 -30 30
-30 27 0 30 -3 30 -30 l0 -30 -60 0 -60 0 0 30 0 30 -60 0 -60 0 0 -30 c0 -27
3 -30 30 -30 l30 0 0 -120 0 -120 60 0 60 0 0 -30 c0 -27 -3 -30 -30 -30 -27
0 -30 -3 -30 -30 l0 -30 -60 0 -60 0 0 90 0 90 -30 0 c-27 0 -30 3 -30 30 0
27 3 30 30 30 27 0 30 3 30 30 0 27 -3 30 -30 30 -27 0 -30 -3 -30 -30 0 -27
-3 -30 -30 -30 -27 0 -30 -3 -30 -30 0 -27 -3 -30 -30 -30 l-30 0 0 -90 0 -90
30 0 30 0 0 60 0 60 30 0 30 0 0 -60 0 -60 30 0 c27 0 30 -3 30 -30 0 -27 -3
-30 -30 -30 -27 0 -30 -3 -30 -30 0 -27 -3 -30 -30 -30 l-30 0 0 -120 0 -120
30 0 c27 0 30 -3 30 -30 0 -27 -3 -30 -30 -30 -27 0 -30 -3 -30 -30 0 -27 3
-30 30 -30 27 0 30 -3 30 -30 0 -27 3 -30 30 -30 27 0 30 -3 30 -30 0 -27 3
-30 30 -30 27 0 30 -3 30 -30 l0 -30 -60 0 -60 0 0 30 c0 27 -3 30 -30 30 -27
0 -30 -3 -30 -30 0 -27 -3 -30 -30 -30 l-30 0 0 -60 0 -60 30 0 30 0 0 -60 0
-60 60 0 60 0 0 -30 c0 -27 3 -30 30 -30 27 0 30 -3 30 -30 l0 -30 -90 0 -90
0 0 -30 c0 -27 -3 -30 -30 -30 -27 0 -30 -3 -30 -30 0 -27 3 -30 30 -30 27 0
30 3 30 30 l0 30 60 0 60 0 0 -30 0 -30 60 0 60 0 0 90 0 90 30 0 c27 0 30 -3
30 -30 0 -27 3 -30 30 -30 27 0 30 -3 30 -30 0 -27 -3 -30 -30 -30 -27 0 -30
-3 -30 -30 0 -27 3 -30 30 -30 27 0 30 3 30 30 0 27 3 30 30 30 27 0 30 -3 30
-30 l0 -30 60 0 60 0 0 -30 c0 -27 3 -30 30 -30 l30 0 0 90 0 90 30 0 c27 0
30 -3 30 -30 l0 -30 90 0 90 0 0 -30 0 -30 60 0 60 0 0 30 c0 27 -3 30 -30 30
-27 0 -30 3 -30 30 l0 30 -90 0 -90 0 0 60 0 60 30 0 c27 0 30 3 30 30 0 27 3
30 30 30 l30 0 0 -60 0 -60 30 0 c27 0 30 3 30 30 0 27 3 30 30 30 27 0 30 3
30 30 0 27 -3 30 -30 30 -27 0 -30 3 -30 30 0 27 3 30 30 30 27 0 30 3 30 30
0 27 3 30 30 30 27 0 30 -3 30 -30 0 -27 3 -30 30 -30 27 0 30 -3 30 -30 l0
-30 90 0 90 0 0 -30 0 -30 -60 0 -60 0 0 -150 0 -150 -60 0 -60 0 0 -30 c0
-27 3 -30 30 -30 l30 0 0 -90 0 -90 30 0 c27 0 30 -3 30 -30 0 -27 -3 -30 -30
-30 l-30 0 0 -60 0 -60 30 0 30 0 0 60 0 60 30 0 30 0 0 -60 0 -60 90 0 90 0
0 30 0 30 -60 0 -60 0 0 60 0 60 30 0 c27 0 30 3 30 30 0 27 3 30 30 30 27 0
30 -3 30 -30 l0 -30 60 0 60 0 0 -30 c0 -27 -3 -30 -30 -30 -27 0 -30 -3 -30
-30 l0 -30 60 0 60 0 0 -30 c0 -27 3 -30 30 -30 27 0 30 3 30 30 0 27 -3 30
-30 30 -27 0 -30 3 -30 30 l0 30 60 0 60 0 0 30 0 30 -60 0 -60 0 0 60 0 60
30 0 c27 0 30 -3 30 -30 l0 -30 90 0 90 0 0 60 0 60 -30 0 c-27 0 -30 -3 -30
-30 0 -27 -3 -30 -30 -30 l-30 0 0 60 0 60 -30 0 c-27 0 -30 -3 -30 -30 l0
-30 -60 0 -60 0 0 60 0 60 120 0 120 0 0 30 c0 27 -3 30 -30 30 -27 0 -30 3
-30 30 l0 30 60 0 60 0 0 30 c0 27 3 30 30 30 27 0 30 -3 30 -30 0 -27 3 -30
30 -30 27 0 30 -3 30 -30 0 -27 3 -30 30 -30 27 0 30 -3 30 -30 0 -27 -3 -30
-30 -30 l-30 0 0 -60 0 -60 -30 0 c-27 0 -30 -3 -30 -30 l0 -30 60 0 60 0 0
30 0 30 60 0 60 0 0 -30 c0 -27 -3 -30 -30 -30 -27 0 -30 -3 -30 -30 l0 -30
-60 0 -60 0 0 -30 c0 -27 -3 -30 -30 -30 l-30 0 0 -60 0 -60 -30 0 c-27 0 -30
-3 -30 -30 0 -27 3 -30 30 -30 27 0 30 3 30 30 0 27 3 30 30 30 27 0 30 -3 30
-30 l0 -30 60 0 60 0 0 30 c0 27 -3 30 -30 30 -27 0 -30 3 -30 30 0 27 3 30
30 30 l30 0 0 60 0 60 30 0 c27 0 30 -3 30 -30 l0 -30 60 0 60 0 0 30 0 30 90
0 90 0 0 30 0 30 90 0 90 0 0 -30 0 -30 -60 0 -60 0 0 -90 0 -90 -60 0 -60 0
0 30 c0 27 3 30 30 30 27 0 30 3 30 30 l0 30 -60 0 -60 0 0 -30 0 -30 -60 0
-60 0 0 -30 c0 -27 -3 -30 -30 -30 -27 0 -30 -3 -30 -30 0 -27 3 -30 30 -30
27 0 30 3 30 30 l0 30 90 0 90 0 0 -30 0 -30 60 0 60 0 0 30 c0 27 3 30 30 30
27 0 30 -3 30 -30 0 -27 3 -30 30 -30 27 0 30 3 30 30 0 27 -3 30 -30 30 l-30
0 0 60 0 60 30 0 c27 0 30 -3 30 -30 0 -27 3 -30 30 -30 l30 0 0 90 0 90 -30
0 c-27 0 -30 3 -30 30 0 27 3 30 30 30 27 0 30 3 30 30 l0 30 -90 0 -90 0 0
-30 c0 -27 -3 -30 -30 -30 l-30 0 0 60 0 60 90 0 90 0 0 30 0 30 -60 0 -60 0
0 30 0 30 90 0 90 0 0 60 0 60 -30 0 c-27 0 -30 -3 -30 -30 l0 -30 -90 0 -90
0 0 -30 c0 -27 -3 -30 -30 -30 -27 0 -30 -3 -30 -30 0 -27 -3 -30 -30 -30 -27
0 -30 3 -30 30 l0 30 -60 0 -60 0 0 -30 c0 -27 -3 -30 -30 -30 l-30 0 0 60 0
60 -30 0 c-27 0 -30 3 -30 30 0 27 3 30 30 30 27 0 30 3 30 30 l0 30 -60 0
-60 0 0 -30 c0 -27 -3 -30 -30 -30 -27 0 -30 -3 -30 -30 0 -27 -3 -30 -30 -30
-27 0 -30 3 -30 30 0 27 -3 30 -30 30 -27 0 -30 -3 -30 -30 l0 -30 -60 0 -60
0 0 30 c0 27 3 30 30 30 l30 0 0 60 0 60 30 0 c27 0 30 -3 30 -30 l0 -30 60 0
60 0 0 30 0 30 60 0 60 0 0 30 c0 27 3 30 30 30 27 0 30 -3 30 -30 0 -27 3
-30 30 -30 27 0 30 3 30 30 0 27 -3 30 -30 30 -27 0 -30 3 -30 30 l0 30 -60 0
-60 0 0 -30 0 -30 -60 0 -60 0 0 30 c0 27 3 30 30 30 27 0 30 3 30 30 0 27 3
30 30 30 27 0 30 3 30 30 0 27 -3 30 -30 30 l-30 0 0 60 0 60 30 0 c27 0 30
-3 30 -30 0 -27 3 -30 30 -30 l30 0 0 60 0 60 -30 0 c-27 0 -30 3 -30 30 0 27
-3 30 -30 30 -27 0 -30 3 -30 30 l0 30 60 0 60 0 0 -30 c0 -27 3 -30 30 -30
l30 0 0 -120 0 -120 -30 0 c-27 0 -30 -3 -30 -30 l0 -30 90 0 90 0 0 -30 c0
-27 3 -30 30 -30 27 0 30 3 30 30 l0 30 60 0 60 0 0 30 0 30 -60 0 -60 0 0 30
0 30 -60 0 -60 0 0 30 0 30 120 0 120 0 0 30 c0 27 3 30 30 30 27 0 30 -3 30
-30 0 -27 3 -30 30 -30 l30 0 0 -60 0 -60 30 0 30 0 0 -90 0 -90 30 0 30 0 0
90 0 90 -30 0 -30 0 0 90 0 90 30 0 30 0 0 60 0 60 -30 0 c-27 0 -30 -3 -30
-30 l0 -30 -60 0 -60 0 0 30 c0 27 3 30 30 30 27 0 30 3 30 30 0 27 3 30 30
30 27 0 30 3 30 30 0 27 -3 30 -30 30 -27 0 -30 -3 -30 -30 l0 -30 -60 0 -60
0 0 30 0 30 -90 0 -90 0 0 30 0 30 60 0 60 0 0 30 0 30 60 0 60 0 0 -30 c0
-27 3 -30 30 -30 l30 0 0 60 0 60 30 0 c27 0 30 -3 30 -30 0 -27 3 -30 30 -30
27 0 30 3 30 30 0 27 -3 30 -30 30 -27 0 -30 3 -30 30 0 27 3 30 30 30 27 0
30 3 30 30 l0 30 -60 0 -60 0 0 -60 0 -60 -60 0 -60 0 0 30 c0 27 3 30 30 30
27 0 30 3 30 30 l0 30 -60 0 -60 0 0 30 c0 27 -3 30 -30 30 l-30 0 0 120 0
120 60 0 60 0 0 -30 c0 -27 -3 -30 -30 -30 l-30 0 0 -60 0 -60 30 0 c27 0 30
-3 30 -30 l0 -30 60 0 60 0 0 30 0 30 -60 0 -60 0 0 30 0 30 90 0 90 0 0 -60
0 -60 30 0 30 0 0 60 0 60 -30 0 -30 0 0 90 0 90 30 0 c27 0 30 3 30 30 0 27
-3 30 -30 30 -27 0 -30 -3 -30 -30 0 -27 -3 -30 -30 -30 -27 0 -30 3 -30 30
l0 30 -60 0 -60 0 0 -30 c0 -27 -3 -30 -30 -30 -27 0 -30 3 -30 30 l0 30 -90
0 -90 0 0 60 0 60 -30 0 -30 0 0 -60 0 -60 30 0 c27 0 30 -3 30 -30 l0 -30
-120 0 -120 0 0 90 0 90 30 0 c27 0 30 -3 30 -30 0 -27 3 -30 30 -30 27 0 30
3 30 30 0 27 -3 30 -30 30 -27 0 -30 3 -30 30 l0 30 90 0 90 0 0 60 0 60 -30
0 -30 0 0 60 0 60 30 0 c27 0 30 3 30 30 0 27 -3 30 -30 30 -27 0 -30 -3 -30
-30 0 -27 -3 -30 -30 -30 l-30 0 0 -90 0 -90 -90 0 -90 0 0 30 c0 27 -3 30
-30 30 -27 0 -30 3 -30 30 0 27 3 30 30 30 27 0 30 3 30 30 l0 30 60 0 60 0 0
30 0 30 -90 0 -90 0 0 -30 c0 -27 -3 -30 -30 -30 -27 0 -30 3 -30 30 0 27 -3
30 -30 30 l-30 0 0 -60 0 -60 -60 0 -60 0 0 30 c0 27 -3 30 -30 30 -27 0 -30
-3 -30 -30 0 -27 -3 -30 -30 -30 l-30 0 0 60 0 60 -30 0 -30 0 0 -90 0 -90 30
0 c27 0 30 -3 30 -30 l0 -30 -60 0 -60 0 0 60 0 60 -30 0 -30 0 0 60 0 60
-120 0 -120 0 0 -30 0 -30 90 0 90 0 0 -60 0 -60 30 0 c27 0 30 -3 30 -30 l0
-30 -60 0 -60 0 0 -120 0 -120 -30 0 -30 0 0 60 0 60 -30 0 c-27 0 -30 -3 -30
-30 0 -27 -3 -30 -30 -30 l-30 0 0 60 0 60 30 0 30 0 0 60 0 60 -60 0 -60 0 0
-30 c0 -27 -3 -30 -30 -30 -27 0 -30 -3 -30 -30 0 -27 3 -30 30 -30 l30 0 0
-60 0 -60 -30 0 c-27 0 -30 3 -30 30 0 27 -3 30 -30 30 l-30 0 0 90 0 90 30 0
c27 0 30 3 30 30 l0 30 60 0 60 0 0 30 c0 27 -3 30 -30 30 -27 0 -30 3 -30 30
l0 30 -150 0 -150 0 0 -30 c0 -27 -3 -30 -30 -30 -27 0 -30 3 -30 30 l0 30
-60 0 -60 0 0 -30z m360 -90 l0 -60 -30 0 -30 0 0 60 0 60 30 0 30 0 0 -60z
m-120 -60 l0 -60 30 0 c27 0 30 -3 30 -30 0 -27 -3 -30 -30 -30 -27 0 -30 3
-30 30 0 27 -3 30 -30 30 -27 0 -30 3 -30 30 l0 30 -60 0 -60 0 0 30 0 30 90
0 90 0 0 -60z m900 30 l0 -30 90 0 90 0 0 -30 0 -30 60 0 60 0 0 -120 0 -120
-120 0 -120 0 0 30 c0 27 -3 30 -30 30 l-30 0 0 -90 0 -90 60 0 60 0 0 -90 0
-90 30 0 c27 0 30 -3 30 -30 0 -27 -3 -30 -30 -30 -27 0 -30 -3 -30 -30 l0
-30 60 0 60 0 0 120 0 120 -30 0 -30 0 0 60 0 60 90 0 90 0 0 -30 c0 -27 3
-30 30 -30 27 0 30 -3 30 -30 0 -27 -3 -30 -30 -30 l-30 0 0 -60 0 -60 -30 0
-30 0 0 -60 0 -60 30 0 c27 0 30 3 30 30 0 27 3 30 30 30 l30 0 0 60 0 60 30
0 c27 0 30 3 30 30 0 27 3 30 30 30 27 0 30 3 30 30 l0 30 60 0 60 0 0 -30 c0
-27 -3 -30 -30 -30 -27 0 -30 -3 -30 -30 0 -27 3 -30 30 -30 l30 0 0 -60 0
-60 30 0 c27 0 30 -3 30 -30 0 -27 3 -30 30 -30 l30 0 0 -60 0 -60 -30 0 c-27
0 -30 -3 -30 -30 0 -27 -3 -30 -30 -30 -27 0 -30 -3 -30 -30 0 -27 -3 -30 -30
-30 -27 0 -30 -3 -30 -30 0 -27 -3 -30 -30 -30 l-30 0 0 -60 0 -60 -30 0 -30
0 0 60 0 60 -60 0 -60 0 0 30 c0 27 -3 30 -30 30 -27 0 -30 -3 -30 -30 l0 -30
-60 0 -60 0 0 -30 c0 -27 -3 -30 -30 -30 -27 0 -30 -3 -30 -30 l0 -30 60 0 60
0 0 30 c0 27 3 30 30 30 27 0 30 -3 30 -30 0 -27 -3 -30 -30 -30 -27 0 -30 -3
-30 -30 0 -27 -3 -30 -30 -30 -27 0 -30 -3 -30 -30 l0 -30 60 0 60 0 0 30 c0
27 3 30 30 30 27 0 30 -3 30 -30 0 -27 -3 -30 -30 -30 -27 0 -30 -3 -30 -30 0
-27 -3 -30 -30 -30 -27 0 -30 -3 -30 -30 0 -27 -3 -30 -30 -30 -27 0 -30 -3
-30 -30 0 -27 3 -30 30 -30 l30 0 0 -90 0 -90 30 0 c27 0 30 -3 30 -30 0 -27
-3 -30 -30 -30 -27 0 -30 3 -30 30 0 27 -3 30 -30 30 -27 0 -30 -3 -30 -30 0
-27 -3 -30 -30 -30 -27 0 -30 -3 -30 -30 0 -27 -3 -30 -30 -30 -27 0 -30 3
-30 30 0 27 3 30 30 30 27 0 30 3 30 30 0 27 -3 30 -30 30 -27 0 -30 3 -30 30
0 27 -3 30 -30 30 -27 0 -30 3 -30 30 l0 30 60 0 60 0 0 30 0 30 -90 0 -90 0
0 30 c0 27 3 30 30 30 27 0 30 3 30 30 l0 30 -60 0 -60 0 0 -30 0 -30 -90 0
-90 0 0 -30 0 -30 90 0 90 0 0 -60 0 -60 -30 0 c-27 0 -30 3 -30 30 l0 30 -60
0 -60 0 0 -30 c0 -27 3 -30 30 -30 27 0 30 -3 30 -30 0 -27 3 -30 30 -30 27 0
30 -3 30 -30 0 -27 3 -30 30 -30 27 0 30 3 30 30 0 27 3 30 30 30 l30 0 0 -60
0 -60 30 0 c27 0 30 -3 30 -30 0 -27 3 -30 30 -30 27 0 30 -3 30 -30 0 -27 3
-30 30 -30 27 0 30 -3 30 -30 0 -27 -3 -30 -30 -30 -27 0 -30 3 -30 30 0 27
-3 30 -30 30 l-30 0 0 -60 0 -60 -120 0 -120 0 0 90 0 90 30 0 c27 0 30 3 30
30 0 27 -3 30 -30 30 l-30 0 0 60 0 60 -60 0 -60 0 0 -30 c0 -27 -3 -30 -30
-30 -27 0 -30 3 -30 30 0 27 -3 30 -30 30 -27 0 -30 3 -30 30 l0 30 -90 0 -90
0 0 -30 c0 -27 -3 -30 -30 -30 -27 0 -30 -3 -30 -30 l0 -30 -60 0 -60 0 0 -60
0 -60 -30 0 c-27 0 -30 3 -30 30 l0 30 -60 0 -60 0 0 -30 0 -30 -90 0 -90 0 0
-30 c0 -27 3 -30 30 -30 27 0 30 -3 30 -30 0 -27 -3 -30 -30 -30 -27 0 -30 3
-30 30 0 27 -3 30 -30 30 -27 0 -30 3 -30 30 0 27 -3 30 -30 30 -27 0 -30 3
-30 30 0 27 -3 30 -30 30 -27 0 -30 -3 -30 -30 0 -27 -3 -30 -30 -30 -27 0
-30 3 -30 30 0 27 -3 30 -30 30 -27 0 -30 3 -30 30 0 27 -3 30 -30 30 -27 0
-30 3 -30 30 l0 30 60 0 60 0 0 -30 c0 -27 3 -30 30 -30 27 0 30 3 30 30 0 27
3 30 30 30 27 0 30 3 30 30 l0 30 60 0 60 0 0 30 0 30 -60 0 -60 0 0 60 0 60
30 0 c27 0 30 3 30 30 0 27 3 30 30 30 27 0 30 -3 30 -30 0 -27 -3 -30 -30
-30 -27 0 -30 -3 -30 -30 0 -27 3 -30 30 -30 27 0 30 -3 30 -30 0 -27 3 -30
30 -30 27 0 30 -3 30 -30 l0 -30 90 0 90 0 0 -30 0 -30 60 0 60 0 0 30 c0 27
-3 30 -30 30 -27 0 -30 3 -30 30 0 27 -3 30 -30 30 -27 0 -30 3 -30 30 0 27
-3 30 -30 30 -27 0 -30 -3 -30 -30 0 -27 -3 -30 -30 -30 l-30 0 0 120 0 120
60 0 60 0 0 -30 c0 -27 3 -30 30 -30 27 0 30 -3 30 -30 0 -27 3 -30 30 -30 27
0 30 -3 30 -30 0 -27 3 -30 30 -30 l30 0 0 -90 0 -90 30 0 c27 0 30 3 30 30 0
27 3 30 30 30 27 0 30 3 30 30 0 27 -3 30 -30 30 -27 0 -30 3 -30 30 l0 30 60
0 60 0 0 30 0 30 -60 0 -60 0 0 30 c0 27 -3 30 -30 30 -27 0 -30 3 -30 30 l0
30 -60 0 -60 0 0 30 c0 27 3 30 30 30 27 0 30 3 30 30 l0 30 -60 0 -60 0 0
-30 0 -30 -60 0 -60 0 0 30 c0 27 3 30 30 30 l30 0 0 60 0 60 -30 0 c-27 0
-30 3 -30 30 0 27 -3 30 -30 30 -27 0 -30 -3 -30 -30 l0 -30 -60 0 -60 0 0 30
c0 27 -3 30 -30 30 -27 0 -30 -3 -30 -30 0 -27 -3 -30 -30 -30 -27 0 -30 3
-30 30 0 27 3 30 30 30 27 0 30 3 30 30 0 27 3 30 30 30 27 0 30 3 30 30 0 27
3 30 30 30 27 0 30 3 30 30 0 27 -3 30 -30 30 -27 0 -30 3 -30 30 0 27 3 30
30 30 27 0 30 3 30 30 0 27 -3 30 -30 30 -27 0 -30 3 -30 30 0 27 3 30 30 30
27 0 30 3 30 30 0 27 3 30 30 30 l30 0 0 60 0 60 150 0 150 0 0 60 0 60 -30 0
c-27 0 -30 -3 -30 -30 0 -27 -3 -30 -30 -30 -27 0 -30 3 -30 30 0 27 3 30 30
30 27 0 30 3 30 30 0 27 -3 30 -30 30 -27 0 -30 3 -30 30 0 27 3 30 30 30 27
0 30 -3 30 -30 0 -27 3 -30 30 -30 27 0 30 3 30 30 0 27 3 30 30 30 27 0 30
-3 30 -30 0 -27 -3 -30 -30 -30 -27 0 -30 -3 -30 -30 0 -27 3 -30 30 -30 l30
0 0 -90 0 -90 90 0 90 0 0 30 c0 27 3 30 30 30 27 0 30 3 30 30 l0 30 60 0 60
0 0 -30 c0 -27 -3 -30 -30 -30 -27 0 -30 -3 -30 -30 l0 -30 -60 0 -60 0 0 -30
0 -30 90 0 90 0 0 30 c0 27 3 30 30 30 27 0 30 -3 30 -30 0 -27 3 -30 30 -30
l30 0 0 60 0 60 30 0 30 0 0 -60 0 -60 -30 0 -30 0 0 -60 0 -60 30 0 c27 0 30
-3 30 -30 0 -27 3 -30 30 -30 l30 0 0 90 0 90 30 0 c27 0 30 -3 30 -30 0 -27
3 -30 30 -30 27 0 30 3 30 30 l0 30 60 0 60 0 0 30 0 30 -60 0 -60 0 0 90 0
90 -30 0 -30 0 0 120 0 120 30 0 c27 0 30 -3 30 -30 l0 -30 60 0 60 0 0 30 c0
27 -3 30 -30 30 -27 0 -30 3 -30 30 0 27 -3 30 -30 30 -27 0 -30 3 -30 30 0
27 3 30 30 30 27 0 30 -3 30 -30z m-180 -240 l0 -90 -90 0 -90 0 0 90 0 90 90
0 90 0 0 -90z m-840 0 c0 -27 -3 -30 -30 -30 -27 0 -30 3 -30 30 0 27 3 30 30
30 27 0 30 -3 30 -30z m420 -90 l0 -60 -30 0 -30 0 0 60 0 60 30 0 30 0 0 -60z
m-480 -30 c0 -27 -3 -30 -30 -30 -27 0 -30 3 -30 30 0 27 3 30 30 30 27 0 30
-3 30 -30z m2040 -60 c0 -27 -3 -30 -30 -30 -27 0 -30 3 -30 30 0 27 3 30 30
30 27 0 30 -3 30 -30z m-2400 -690 l0 -60 -30 0 -30 0 0 60 0 60 30 0 30 0 0
-60z m300 -90 l0 -90 -90 0 -90 0 0 90 0 90 90 0 90 0 0 -90z m1920 0 l0 -90
-90 0 -90 0 0 90 0 90 90 0 90 0 0 -90z m-2160 -60 l0 -30 -60 0 -60 0 0 30 0
30 60 0 60 0 0 -30z m0 -180 c0 -27 -3 -30 -30 -30 -27 0 -30 3 -30 30 0 27 3
30 30 30 27 0 30 -3 30 -30z m1740 -60 c0 -27 -3 -30 -30 -30 -27 0 -30 3 -30
30 0 27 3 30 30 30 27 0 30 -3 30 -30z m-1380 -450 l0 -60 -30 0 -30 0 0 60 0
60 30 0 30 0 0 -60z m720 30 c0 -27 -3 -30 -30 -30 -27 0 -30 3 -30 30 0 27 3
30 30 30 27 0 30 -3 30 -30z m720 0 c0 -27 -3 -30 -30 -30 -27 0 -30 3 -30 30
0 27 3 30 30 30 27 0 30 -3 30 -30z m120 -150 l0 -60 -60 0 -60 0 0 30 c0 27
3 30 30 30 27 0 30 3 30 30 0 27 3 30 30 30 l30 0 0 -60z m-720 -90 l0 -90
-90 0 -90 0 0 90 0 90 90 0 90 0 0 -90z m960 0 l0 -90 -90 0 -90 0 0 90 0 90
90 0 90 0 0 -90z m-840 -90 l0 -60 -30 0 -30 0 0 60 0 60 30 0 30 0 0 -60z
m-240 -90 c0 -27 -3 -30 -30 -30 -27 0 -30 3 -30 30 0 27 3 30 30 30 27 0 30
-3 30 -30z"/>
<path d="M1790 2420 c0 -27 -3 -30 -30 -30 -27 0 -30 -3 -30 -30 0 -27 3 -30
30 -30 27 0 30 3 30 30 0 27 3 30 30 30 27 0 30 -3 30 -30 0 -27 3 -30 30 -30
27 0 30 3 30 30 0 27 -3 30 -30 30 -27 0 -30 3 -30 30 0 27 -3 30 -30 30 -27
0 -30 -3 -30 -30z"/>
<path d="M1610 2360 c0 -27 3 -30 30 -30 27 0 30 3 30 30 0 27 -3 30 -30 30
-27 0 -30 -3 -30 -30z"/>
<path d="M590 2060 c0 -27 -3 -30 -30 -30 -27 0 -30 -3 -30 -30 0 -27 -3 -30
-30 -30 -27 0 -30 -3 -30 -30 l0 -30 60 0 60 0 0 30 c0 27 3 30 30 30 27 0 30
-3 30 -30 0 -27 3 -30 30 -30 27 0 30 3 30 30 0 27 3 30 30 30 27 0 30 -3 30
-30 l0 -30 60 0 60 0 0 -30 c0 -27 3 -30 30 -30 l30 0 0 -60 0 -60 30 0 c27 0
30 -3 30 -30 0 -27 -3 -30 -30 -30 -27 0 -30 -3 -30 -30 0 -27 3 -30 30 -30
27 0 30 3 30 30 0 27 3 30 30 30 l30 0 0 -60 0 -60 30 0 c27 0 30 -3 30 -30
l0 -30 -90 0 -90 0 0 30 0 30 -90 0 -90 0 0 30 0 30 60 0 60 0 0 30 0 30 -60
0 -60 0 0 -30 0 -30 -60 0 -60 0 0 -30 0 -30 60 0 60 0 0 -30 0 -30 90 0 90 0
0 -30 c0 -27 -3 -30 -30 -30 -27 0 -30 -3 -30 -30 0 -27 3 -30 30 -30 27 0 30
3 30 30 0 27 3 30 30 30 l30 0 0 -60 0 -60 -30 0 c-27 0 -30 -3 -30 -30 l0
-30 60 0 60 0 0 -30 c0 -27 3 -30 30 -30 27 0 30 -3 30 -30 0 -27 -3 -30 -30
-30 -27 0 -30 -3 -30 -30 l0 -30 60 0 60 0 0 -30 c0 -27 3 -30 30 -30 27 0 30
-3 30 -30 0 -27 3 -30 30 -30 l30 0 0 60 0 60 -30 0 c-27 0 -30 3 -30 30 0 27
3 30 30 30 27 0 30 3 30 30 0 27 3 30 30 30 27 0 30 3 30 30 l0 30 90 0 90 0
0 90 0 90 60 0 60 0 0 120 0 120 30 0 30 0 0 -60 0 -60 30 0 c27 0 30 3 30 30
0 27 3 30 30 30 l30 0 0 60 0 60 30 0 30 0 0 -60 0 -60 30 0 c27 0 30 3 30 30
l0 30 60 0 60 0 0 -30 c0 -27 3 -30 30 -30 l30 0 0 60 0 60 30 0 c27 0 30 -3
30 -30 0 -27 3 -30 30 -30 27 0 30 3 30 30 0 27 -3 30 -30 30 l-30 0 0 60 0
60 -60 0 -60 0 0 -30 c0 -27 3 -30 30 -30 27 0 30 -3 30 -30 l0 -30 -60 0 -60
0 0 30 c0 27 -3 30 -30 30 -27 0 -30 -3 -30 -30 0 -27 -3 -30 -30 -30 -27 0
-30 3 -30 30 l0 30 -60 0 -60 0 0 30 c0 27 -3 30 -30 30 -27 0 -30 -3 -30 -30
0 -27 3 -30 30 -30 27 0 30 -3 30 -30 l0 -30 -60 0 -60 0 0 90 0 90 30 0 c27
0 30 3 30 30 0 27 -3 30 -30 30 -27 0 -30 -3 -30 -30 l0 -30 -60 0 -60 0 0
-30 c0 -27 -3 -30 -30 -30 -27 0 -30 -3 -30 -30 l0 -30 60 0 60 0 0 -30 c0
-27 -3 -30 -30 -30 -27 0 -30 -3 -30 -30 0 -27 -3 -30 -30 -30 l-30 0 0 -60 0
-60 -90 0 -90 0 0 30 c0 27 -3 30 -30 30 -27 0 -30 -3 -30 -30 0 -27 -3 -30
-30 -30 -27 0 -30 3 -30 30 0 27 -3 30 -30 30 l-30 0 0 60 0 60 -60 0 -60 0 0
60 0 60 30 0 c27 0 30 -3 30 -30 l0 -30 120 0 120 0 0 60 0 60 -30 0 c-27 0
-30 3 -30 30 0 27 3 30 30 30 27 0 30 3 30 30 0 27 -3 30 -30 30 -27 0 -30 -3
-30 -30 0 -27 -3 -30 -30 -30 l-30 0 0 -60 0 -60 -60 0 -60 0 0 30 c0 27 3 30
30 30 27 0 30 3 30 30 l0 30 -60 0 -60 0 0 30 0 30 -60 0 -60 0 0 30 c0 27 -3
30 -30 30 l-30 0 0 -60 0 -60 -30 0 c-27 0 -30 3 -30 30 0 27 -3 30 -30 30
-27 0 -30 3 -30 30 l0 30 -60 0 -60 0 0 -30z m120 -60 c0 -27 -3 -30 -30 -30
-27 0 -30 3 -30 30 0 27 3 30 30 30 27 0 30 -3 30 -30z m240 -60 c0 -27 3 -30
30 -30 27 0 30 -3 30 -30 0 -27 -3 -30 -30 -30 -27 0 -30 3 -30 30 0 27 -3 30
-30 30 -27 0 -30 3 -30 30 0 27 3 30 30 30 27 0 30 -3 30 -30z m660 -360 l0
-90 -30 0 -30 0 0 90 0 90 30 0 30 0 0 -90z m-120 -180 l0 -90 -90 0 -90 0 0
90 0 90 90 0 90 0 0 -90z m-360 0 c0 -27 3 -30 30 -30 27 0 30 3 30 30 0 27 3
30 30 30 27 0 30 -3 30 -30 0 -27 -3 -30 -30 -30 -27 0 -30 -3 -30 -30 0 -27
-3 -30 -30 -30 -27 0 -30 3 -30 30 0 27 -3 30 -30 30 -27 0 -30 3 -30 30 0 27
3 30 30 30 27 0 30 -3 30 -30z m120 -240 c0 -27 -3 -30 -30 -30 -27 0 -30 3
-30 30 0 27 3 30 30 30 27 0 30 -3 30 -30z"/>
<path d="M1370 1400 c0 -27 3 -30 30 -30 27 0 30 3 30 30 0 27 -3 30 -30 30
-27 0 -30 -3 -30 -30z"/>
<path d="M2210 1970 l0 -60 30 0 30 0 0 60 0 60 -30 0 -30 0 0 -60z"/>
<path d="M470 1820 l0 -30 60 0 60 0 0 30 0 30 -60 0 -60 0 0 -30z"/>
<path d="M710 1820 c0 -27 -3 -30 -30 -30 -27 0 -30 -3 -30 -30 0 -27 -3 -30
-30 -30 -27 0 -30 -3 -30 -30 l0 -30 60 0 60 0 0 30 0 30 60 0 60 0 0 60 0 60
-60 0 -60 0 0 -30z"/>
<path d="M1370 1820 c0 -27 3 -30 30 -30 27 0 30 3 30 30 0 27 -3 30 -30 30
-27 0 -30 -3 -30 -30z"/>
<path d="M1310 1700 c0 -27 3 -30 30 -30 27 0 30 -3 30 -30 0 -27 3 -30 30
-30 l30 0 0 60 0 60 -60 0 -60 0 0 -30z"/>
<path d="M410 1640 c0 -27 3 -30 30 -30 27 0 30 3 30 30 0 27 -3 30 -30 30
-27 0 -30 -3 -30 -30z"/>
<path d="M1670 1310 l0 -60 60 0 60 0 0 30 c0 27 -3 30 -30 30 -27 0 -30 3
-30 30 0 27 -3 30 -30 30 l-30 0 0 -60z"/>
<path d="M710 1160 c0 -27 3 -30 30 -30 27 0 30 3 30 30 0 27 -3 30 -30 30
-27 0 -30 -3 -30 -30z"/>
<path d="M1790 1010 l0 -60 30 0 30 0 0 60 0 60 -30 0 -30 0 0 -60z"/>
<path d="M470 980 l0 -30 -60 0 -60 0 0 -60 0 -60 30 0 c27 0 30 -3 30 -30 0
-27 3 -30 30 -30 27 0 30 3 30 30 l0 30 60 0 60 0 0 30 0 30 60 0 60 0 0 30 0
30 -60 0 -60 0 0 -30 0 -30 -60 0 -60 0 0 30 c0 27 3 30 30 30 27 0 30 3 30
30 0 27 -3 30 -30 30 -27 0 -30 -3 -30 -30z m0 -120 c0 -27 -3 -30 -30 -30
-27 0 -30 3 -30 30 0 27 3 30 30 30 27 0 30 -3 30 -30z"/>
<path d="M1550 800 c0 -27 -3 -30 -30 -30 -27 0 -30 -3 -30 -30 0 -27 3 -30
30 -30 27 0 30 3 30 30 0 27 3 30 30 30 27 0 30 -3 30 -30 0 -27 3 -30 30 -30
27 0 30 3 30 30 0 27 -3 30 -30 30 -27 0 -30 3 -30 30 0 27 -3 30 -30 30 -27
0 -30 -3 -30 -30z"/>
<path d="M1370 2360 c0 -27 3 -30 30 -30 27 0 30 3 30 30 0 27 -3 30 -30 30
-27 0 -30 -3 -30 -30z"/>
<path d="M410 1400 c0 -27 3 -30 30 -30 27 0 30 3 30 30 0 27 -3 30 -30 30
-27 0 -30 -3 -30 -30z"/>
<path d="M2330 1400 c0 -27 3 -30 30 -30 27 0 30 3 30 30 0 27 -3 30 -30 30
-27 0 -30 -3 -30 -30z"/>
<path d="M1370 440 c0 -27 3 -30 30 -30 27 0 30 3 30 30 0 27 -3 30 -30 30
-27 0 -30 -3 -30 -30z"/>
<path d="M2330 440 c0 -27 3 -30 30 -30 27 0 30 3 30 30 0 27 -3 30 -30 30
-27 0 -30 -3 -30 -30z"/>
<path d="M2330 2540 l0 -210 210 0 210 0 0 210 0 210 -210 0 -210 0 0 -210z
m360 0 l0 -150 -150 0 -150 0 0 150 0 150 150 0 150 0 0 -150z"/>
<path d="M2450 2540 l0 -90 90 0 90 0 0 90 0 90 -90 0 -90 0 0 -90z"/>
<path d="M2030 2600 c0 -27 3 -30 30 -30 27 0 30 3 30 30 0 27 -3 30 -30 30
-27 0 -30 -3 -30 -30z"/>
<path d="M50 2240 l0 -30 60 0 60 0 0 -30 c0 -27 3 -30 30 -30 27 0 30 3 30
30 0 27 3 30 30 30 27 0 30 -3 30 -30 0 -27 3 -30 30 -30 27 0 30 3 30 30 0
27 -3 30 -30 30 -27 0 -30 3 -30 30 0 27 -3 30 -30 30 -27 0 -30 -3 -30 -30 0
-27 -3 -30 -30 -30 -27 0 -30 3 -30 30 l0 30 -60 0 -60 0 0 -30z"/>
<path d="M110 2060 c0 -27 3 -30 30 -30 27 0 30 3 30 30 0 27 -3 30 -30 30
-27 0 -30 -3 -30 -30z"/>
<path d="M2570 1010 l0 -60 30 0 30 0 0 60 0 60 -30 0 -30 0 0 -60z"/>
<path d="M2330 890 l0 -60 -30 0 c-27 0 -30 -3 -30 -30 0 -27 3 -30 30 -30 27
0 30 -3 30 -30 l0 -30 60 0 60 0 0 30 c0 27 3 30 30 30 27 0 30 3 30 30 0 27
3 30 30 30 27 0 30 3 30 30 0 27 -3 30 -30 30 -27 0 -30 3 -30 30 l0 30 -90 0
-90 0 0 -60z m180 -30 c0 -27 -3 -30 -30 -30 -27 0 -30 3 -30 30 0 27 3 30 30
30 27 0 30 -3 30 -30z m-120 -60 c0 -27 -3 -30 -30 -30 -27 0 -30 3 -30 30 0
27 3 30 30 30 27 0 30 -3 30 -30z"/>
<path d="M1070 680 l0 -30 60 0 60 0 0 30 0 30 -60 0 -60 0 0 -30z"/>
<path d="M1910 500 c0 -27 3 -30 30 -30 27 0 30 3 30 30 0 27 -3 30 -30 30
-27 0 -30 -3 -30 -30z"/>
<path d="M50 260 l0 -210 210 0 210 0 0 210 0 210 -210 0 -210 0 0 -210z m360
0 l0 -150 -150 0 -150 0 0 150 0 150 150 0 150 0 0 -150z"/>
<path d="M170 260 l0 -90 90 0 90 0 0 90 0 90 -90 0 -90 0 0 -90z"/>
<path d="M530 440 c0 -27 3 -30 30 -30 27 0 30 -3 30 -30 0 -27 3 -30 30 -30
27 0 30 3 30 30 0 27 -3 30 -30 30 -27 0 -30 3 -30 30 0 27 -3 30 -30 30 -27
0 -30 -3 -30 -30z"/>
<path d="M830 440 l0 -30 -60 0 -60 0 0 -30 0 -30 60 0 60 0 0 30 0 30 120 0
120 0 0 30 0 30 -120 0 -120 0 0 -30z"/>
<path d="M890 320 l0 -30 -60 0 -60 0 0 -30 c0 -27 3 -30 30 -30 27 0 30 -3
30 -30 0 -27 3 -30 30 -30 l30 0 0 60 0 60 30 0 30 0 0 -90 0 -90 30 0 c27 0
30 -3 30 -30 l0 -30 60 0 60 0 0 30 0 30 -60 0 -60 0 0 30 0 30 60 0 60 0 0
60 0 60 -60 0 -60 0 0 30 0 30 -60 0 -60 0 0 -30z"/>
<path d="M530 260 c0 -27 3 -30 30 -30 27 0 30 -3 30 -30 0 -27 -3 -30 -30
-30 l-30 0 0 -60 0 -60 90 0 90 0 0 30 c0 27 3 30 30 30 27 0 30 3 30 30 0 27
-3 30 -30 30 l-30 0 0 60 0 60 -90 0 -90 0 0 -30z m180 -120 c0 -27 -3 -30
-30 -30 -27 0 -30 3 -30 30 0 27 3 30 30 30 27 0 30 -3 30 -30z"/>
<path d="M830 80 c0 -27 3 -30 30 -30 27 0 30 3 30 30 0 27 -3 30 -30 30 -27
0 -30 -3 -30 -30z"/>
<path d="M1790 80 c0 -27 3 -30 30 -30 27 0 30 3 30 30 0 27 -3 30 -30 30 -27
0 -30 -3 -30 -30z"/>
</g>
</svg>
